# xmcd
#
# Track frame offsets: 
#        150
#        14083
#        31846
#        52216
#        78852
#        91111
#        108939
#        117417
#        133040
#        147213
#        166398
#
# Disc length: 2353 seconds
#
# Revision: 2
# Processed by: cddbd v1.4PL0 Copyright (c) Steve Scherf et al.
# Submitted via: ExactAudioCopy v0.95a4
#
DISCID=8e092f0b
DTITLE=Gillian Welch - Hell Among The Yearlings
DYEAR=1900
DGENRE=
TTITLE0=Caleb Meyer
TTITLE1=Good 'Til Now
TTITLE2=The Devil Had A Hold Of Me
TTITLE3=My Morphine
TTITLE4=One Morning
TTITLE5=Miner's Refrain
TTITLE6=Honey Now
TTITLE7=I'm Not Afraid To Die
TTITLE8=Rock Of Ages
TTITLE9=Whiskey Girl
TTITLE10=Winter's Come And Gone
EXTD=
EXTT0=
EXTT1=
EXTT2=
EXTT3=
EXTT4=
EXTT5=
EXTT6=
EXTT7=
EXTT8=
EXTT9=
EXTT10=
PLAYORDER=
